PathFileType	3	(X/Y/Z)	C:\Users\koon_\Desktop\
DataRate	CameraRate	NumFrames	NumMarkers	Units	OrigDataRate	OrigDataStartFrame	OrigNumFrames
100.0	100.0	5	27	mm	100.0	2482	3309	
Frame#	Time	get:LFHD			get:RFHD			get:LBHD			get:RBHD			get:C7			get:T10			get:CLAV			get:STRN			get:RBAK			get:LSHO			get:LUPA			get:LELB			get:LFRA			get:LWRA			get:LWRB			get:LFIN			get:RSHO			get:RUPA			get:RELB			get:RFRA			get:RWRA			get:RWRB			get:RFIN			get:LASI			get:RASI			get:LPSI			get:RPSI			
		X1	Y1	Z1	X2	Y2	Z2	X3	Y3	Z3	X4	Y4	Z4	X5	Y5	Z5	X6	Y6	Z6	X7	Y7	Z7	X8	Y8	Z8	X9	Y9	Z9	X10	Y10	Z10	X11	Y11	Z11	X12	Y12	Z12	X13	Y13	Z13	X14	Y14	Z14	X15	Y15	Z15	X16	Y16	Z16	X17	Y17	Z17	X18	Y18	Z18	X19	Y19	Z19	X20	Y20	Z20	X21	Y21	Z21	X22	Y22	Z22	X23	Y23	Z23	X24	Y24	Z24	X25	Y25	Z25	X26	Y26	Z26	X27	Y27	Z27	
2482	24.81	71.380295	1569.5189	-18.46106	-69.01442	1558.7531	-29.891739	61.699337	1552.5459	-179.72412	-65.460617	1518.4102	-192.32207	45.624714	1345.0862	-179.76086	58.891029	1144.4333	-222.08195	-15.861443	1264.3826	-2.7600129	-7.0517349	1070.668	35.400299	-23.834024	1260.918	-229.87334	110.01039	1369.2439	-50.335983	176.73175	1358.0846	60.285934	204.40601	1323.198	250.52292	73.83712	1358.019	317.52304	-4.456573	1358.7649	330.73718	19.289471	1315.1821	399.96603	-66.974419	1370.5455	406.43033	-102.41273	1330.0524	-134.39185	-235.72318	1174.6146	-63.120083	-297.37573	1071.17	-48.484188	-264.51068	1159.4651	-34.608158	-189.48453	1253.2222	17.938742	-181.5638	1214.801	88.557175	-160.74918	1319.4022	86.860756	135.59148	889.98132	9.5008087	-129.83353	880.15857	-17.836733	65.80188	949.77698	-214.39496	-23.603653	947.92761	-225.73593
2483	24.82	71.551933	1569.4645	-18.717152	-68.822952	1558.7419	-30.121365	61.882271	1552.6885	-179.93118	-65.312355	1518.5425	-192.57642	44.803741	1344.6233	-180.93974	57.334076	1143.9048	-222.83255	-14.623283	1264.5012	-2.8630402	-5.6242986	1070.821	35.500629	-25.187212	1260.6593	-230.25404	111.01899	1368.4922	-52.660881	179.56706	1356.6561	56.911823	209.35551	1320.7679	246.72197	79.731293	1357.6633	313.77689	1.4160678	1360.1094	327.18069	24.659866	1315.4421	396.21735	-60.318211	1372.6757	403.26956	-102.73047	1330.1195	-134.0932	-235.15962	1174.9656	-61.189171	-296.67734	1071.5854	-45.713535	-263.72418	1159.9329	-32.558361	-188.40222	1253.9792	19.119879	-179.95177	1215.7402	89.862038	-159.31027	1320.3228	87.772835	136.50481	890.0921	8.7166872	-129.07808	880.02448	-16.556194	64.52639	949.68359	-214.69974	-24.894213	947.91406	-225.41336
2484	24.83	71.751846	1569.4537	-18.959757	-68.590752	1558.8164	-30.348579	62.039539	1552.7524	-180.19563	-65.167412	1518.6403	-192.66049	43.847687	1344.1921	-182.21655	55.668804	1143.3604	-223.61047	-13.448816	1264.6432	-2.8360636	-4.295012	1070.9388	35.525253	-26.705572	1260.4803	-230.61104	112.04491	1367.6659	-55.082359	182.50116	1354.9434	53.385338	214.69446	1317.5924	242.57771	86.185059	1356.9399	309.69678	7.5258102	1361.278	322.871	29.984686	1315.5856	391.63928	-53.317314	1375.0535	399.09399	-103.13287	1330.2787	-133.7746	-234.58879	1175.3129	-59.127125	-295.86829	1071.9178	-42.681583	-262.95953	1160.4237	-30.391973	-187.29358	1254.7158	20.574408	-178.243	1216.7448	91.381233	-157.85225	1321.3175	88.751968	137.4211	890.20154	7.8511324	-128.39326	879.87714	-15.461876	63.310833	949.63373	-214.9639	-26.167524	947.81006	-224.95595
2485	24.84	71.959885	1569.4688	-19.192997	-68.406975	1558.9252	-30.637604	62.226353	1552.7408	-180.47337	-65.008408	1518.7291	-192.98242	42.653339	1343.6349	-183.13463	53.924549	1142.6926	-224.28409	-12.257847	1264.8324	-2.8354332	-3.0315979	1071.1187	35.642422	-28.308186	1260.35	-230.87462	113.21745	1366.843	-57.646042	185.67816	1352.8284	49.812473	220.44044	1313.649	238.10973	93.158867	1356.0055	304.72043	14.929394	1362.2577	317.79874	35.424152	1315.9124	386.32419	-46.14188	1377.8043	393.62268	-103.59736	1330.4562	-133.25595	-234.12512	1175.7262	-56.904568	-295.04453	1072.2465	-39.570988	-262.12881	1160.8687	-27.966314	-186.23701	1255.4735	22.022133	-176.42303	1217.8203	92.836288	-156.48969	1322.3977	89.793999	138.20218	890.32361	6.9952374	-127.71325	879.82837	-14.40973	62.126339	949.59082	-215.24512	-27.286907	947.84393	-224.81931
2486	24.85	72.151299	1569.4722	-19.426603	-68.237846	1559.0282	-30.879843	62.398247	1552.7163	-180.7475	-64.821808	1518.8413	-193.31836	41.475384	1342.8375	-183.84285	52.149883	1142.0604	-225.01341	-11.085515	1265.0806	-2.915328	-1.8683949	1071.2572	35.741192	-30.053944	1260.2366	-231.04439	114.37531	1365.8575	-60.226528	189.03105	1350.324	46.158913	226.53029	1308.9109	233.2722	100.56465	1354.7192	299.12268	22.054029	1363.5179	311.6694	41.111458	1316.3253	380.20923	-38.25095	1380.951	387.50208	-104.09755	1330.6581	-132.65208	-233.65854	1176.1049	-54.616608	-294.14401	1072.5533	-36.422886	-261.30777	1161.2489	-25.191149	-185.18333	1256.312	23.554621	-174.67264	1218.9236	94.522316	-155.10629	1323.53	90.836319	138.95943	890.41962	6.2915826	-127.17239	879.70319	-13.532907	61.191154	949.60376	-215.58517	-28.407518	947.79553	-224.50677
